<svg xmlns="http://www.w3.org/2000/svg" viewBox="0 0 100 100" role="img" aria-label="Dayspark mark">
  <defs>
    <linearGradient id="dayspark-mark-grad" x1="0" y1="0" x2="1" y2="1">
      <stop offset="0" stop-color="#FFC24B"/>
      <stop offset="1" stop-color="#FF6A3D"/>
    </linearGradient>
  </defs>
  <path fill="url(#dayspark-mark-grad)" transform="translate(14,22) scale(2.667)" d="M12 0 C12 6 18 12 24 12 C18 12 12 18 12 24 C12 18 6 12 0 12 C6 12 12 6 12 0 Z"/>
  <path fill="url(#dayspark-mark-grad)" transform="translate(63,15) scale(0.917)" d="M12 0 C12 6 18 12 24 12 C18 12 12 18 12 24 C12 18 6 12 0 12 C6 12 12 6 12 0 Z"/>
</svg>
