<svg xmlns="http://www.w3.org/2000/svg" viewBox="0 0 342 100" role="img" aria-label="Dayspark">
  <defs>
    <linearGradient id="dayspark-wm-grad" x1="0" y1="0" x2="1" y2="1">
      <stop offset="0" stop-color="#FFC24B"/>
      <stop offset="1" stop-color="#FF6A3D"/>
    </linearGradient>
  </defs>
  <g transform="translate(6,18) scale(0.64)">
    <path fill="url(#dayspark-wm-grad)" transform="translate(14,22) scale(2.667)" d="M12 0 C12 6 18 12 24 12 C18 12 12 18 12 24 C12 18 6 12 0 12 C6 12 12 6 12 0 Z"/>
    <path fill="url(#dayspark-wm-grad)" transform="translate(63,15) scale(0.917)" d="M12 0 C12 6 18 12 24 12 C18 12 12 18 12 24 C12 18 6 12 0 12 C6 12 12 6 12 0 Z"/>
  </g>
  <!-- Reference wordmark uses a system font; production should outline the text (or bundle Geist) for portability. -->
  <text x="82" y="66" font-family="system-ui,-apple-system,'Segoe UI',Roboto,sans-serif" font-size="52" font-weight="800" letter-spacing="-1.5" fill="#2B2A27">Day<tspan fill="#FF6A3D">spark</tspan></text>
</svg>
